<svg xmlns="http://www.w3.org/2000/svg" viewBox="0 0 400 300">
  <!-- Background -->
  <rect width="400" height="300" fill="#ffffff" rx="10" ry="10"/>
  
  <!-- Abstract hexagonal network pattern suggesting blockchain -->
  <g fill="none" stroke="#6366F1" stroke-width="2">
    <path d="M120 150 L160 130 L200 150 L240 130 L280 150" />
    <path d="M120 150 L160 170 L200 150 L240 170 L280 150" />
    <path d="M160 130 L160 170" />
    <path d="M200 110 L200 190" />
    <path d="M240 130 L240 170" />
  </g>
  
  <!-- Main Logo Shape -->
  <path d="M200 90 A70 70 0 1 0 200 230 A70 70 0 1 0 200 90 Z" fill="#111827" />
  
  <!-- Eye representing AI scanning -->
  <ellipse cx="200" cy="160" rx="35" ry="35" fill="#6366F1" />
  <ellipse cx="200" cy="160" rx="15" ry="15" fill="#111827" />
  <path d="M180 140 L220 140" stroke="#6366F1" stroke-width="4" />
  <path d="M170 160 L230 160" stroke="#111827" stroke-width="4" />
  
  <!-- Code/Check mark elements -->
  <path d="M170 120 L190 120 L190 125 L175 125 L175 135 L185 135" stroke="#6366F1" stroke-width="3" fill="none" />
  <path d="M210 125 L220 115 L230 125" stroke="#6366F1" stroke-width="3" fill="none" />
  <path d="M165 200 L185 180 L195 190" stroke="#6366F1" stroke-width="3" fill="none" />
  <path d="M205 190 L225 170" stroke="#6366F1" stroke-width="3" fill="none" />
  
  <!-- Brand Name -->
  <text x="200" y="270" font-family="Arial, sans-serif" font-size="24" font-weight="bold" text-anchor="middle" fill="#111827">SECUREFI</text>
</svg>
