<?xml version="1.0" standalone="no"?>
<!DOCTYPE svg PUBLIC "-//W3C//DTD SVG 20010904//EN"
 "http://www.w3.org/TR/2001/REC-SVG-20010904/DTD/svg10.dtd">
<svg version="1.0" xmlns="http://www.w3.org/2000/svg"
 width="400.000000pt" height="300.000000pt" viewBox="0 0 400.000000 300.000000"
 preserveAspectRatio="xMidYMid meet">

<g transform="translate(0.000000,300.000000) scale(0.100000,-0.100000)"
fill="#000000" stroke="none">
<path d="M1855 2084 c-38 -8 -113 -35 -165 -61 -80 -38 -109 -60 -181 -132
-87 -88 -153 -194 -178 -287 -10 -36 -17 -43 -71 -69 -33 -16 -60 -32 -60 -35
0 -4 23 -17 50 -30 l50 -23 0 -54 c0 -93 28 -202 77 -303 38 -79 60 -109 132
-181 72 -72 102 -94 181 -132 209 -102 411 -102 620 0 79 38 109 60 181 132
72 72 94 102 132 181 49 100 77 210 77 302 l0 53 50 24 c28 13 50 27 50 31 0
3 -27 19 -60 35 -54 26 -61 33 -71 69 -25 93 -91 199 -178 287 -72 72 -101 93
-181 132 -151 74 -298 93 -455 61z m-545 -566 c0 -54 -11 -62 -53 -42 -21 10
-37 20 -37 24 0 5 73 46 88 49 1 1 2 -14 2 -31z m1425 10 c25 -12 45 -25 45
-28 0 -9 -71 -42 -78 -36 -6 6 -21 86 -16 86 2 0 24 -10 49 -22z"/>
<path d="M1436 467 c-12 -9 -17 -23 -14 -42 2 -25 10 -32 46 -44 31 -9 42 -18
40 -30 -4 -21 -41 -26 -58 -6 -14 17 -40 20 -40 5 0 -21 41 -50 70 -50 29 0
70 29 70 51 0 26 -23 49 -60 59 -22 6 -40 15 -40 21 0 16 31 23 51 11 37 -23
53 -8 23 22 -19 19 -64 21 -88 3z"/>
<path d="M1580 390 l0 -90 65 0 c51 0 65 3 65 15 0 11 -12 15 -50 15 -47 0
-50 2 -50 25 0 23 4 25 45 25 33 0 45 4 45 15 0 11 -12 15 -45 15 -38 0 -45 3
-45 20 0 17 7 20 45 20 33 0 45 4 45 15 0 12 -13 15 -60 15 l-60 0 0 -90z"/>
<path d="M1760 460 c-56 -56 -24 -160 50 -160 29 0 70 29 70 50 0 16 -37 12
-44 -5 -7 -18 -37 -20 -54 -3 -7 7 -12 28 -12 48 0 55 34 77 69 46 10 -9 22
-12 30 -7 11 7 9 13 -8 30 -27 27 -75 27 -101 1z"/>
<path d="M1910 407 c0 -84 15 -107 68 -107 50 0 62 21 62 106 0 59 -3 74 -15
74 -12 0 -15 -14 -15 -70 0 -56 -3 -72 -16 -77 -34 -13 -49 11 -52 81 -2 50
-6 66 -17 66 -12 0 -15 -16 -15 -73z"/>
<path d="M2080 390 c0 -73 3 -90 15 -90 10 0 15 11 15 35 0 47 27 47 58 0 13
-21 30 -35 43 -35 21 0 21 4 -13 53 -11 15 -14 27 -8 27 6 0 15 11 22 25 9 19
8 29 -6 50 -14 22 -24 25 -71 25 l-55 0 0 -90z m95 35 c0 -15 -8 -21 -32 -23
-30 -3 -33 -1 -33 23 0 24 3 26 33 23 24 -2 32 -8 32 -23z"/>
<path d="M2250 390 l0 -90 65 0 c51 0 65 3 65 15 0 11 -12 15 -50 15 -47 0
-50 2 -50 25 0 23 4 25 45 25 33 0 45 4 45 15 0 11 -12 15 -45 15 -38 0 -45 3
-45 20 0 17 7 20 45 20 33 0 45 4 45 15 0 12 -13 15 -60 15 l-60 0 0 -90z"/>
<path d="M2410 390 c0 -73 3 -90 15 -90 10 0 15 11 15 35 0 33 2 35 35 35 24
0 35 5 35 15 0 10 -11 15 -35 15 -31 0 -35 3 -35 25 0 23 4 25 40 25 29 0 40
4 40 15 0 12 -13 15 -55 15 l-55 0 0 -90z"/>
<path d="M2560 390 c0 -73 3 -90 15 -90 12 0 15 17 15 90 0 73 -3 90 -15 90
-12 0 -15 -17 -15 -90z"/>
</g>
</svg>
